# xmcd
#
# Track frame offsets:
#	150
#	18424
#	35539
#	60294
#	76162
#	104701
#	126728
#	148521
#	178900
#	195781
#	215619
#	232256
#	242412
#	261136
#	276704
#	295286
#
# Disc length: 4166 seconds
#
# Revision: 0
# Processed by: cddbd v1.4PL0 Copyright (c) Steve Scherf et al.
# Submitted via: EasyCDDAExtractor 4.5.0.2
#
DISCID=f6104410
DTITLE=Angels  - Paz As Nações
DYEAR=1900
DGENRE=Gospel
TTITLE0=Elevo Meus Olhos - Shalon Jerusalem
TTITLE1=Exaltai - Ron Kenoly
TTITLE2=Bendito é o Senhor - Fabricio Valadão batistoni
TTITLE3=Aleluia - Koinonya Unção de Avivamento
TTITLE4=Vamos Celebrá-lo - All About Love
TTITLE5=Vem Ser Feliz - All About Love
TTITLE6=Retorne para Deus, América - Ron kenoly Majesty 
TTITLE7=Jesus: Rei do Reis - Ron Kenoly High Places
TTITLE8=Reino de Justiça - Ron Kenoly majesty 
TTITLE9=Tempo de Jubilar - Ron Kenoly We Offer Praises
TTITLE10=Nações da Terra: Busquem a Sião - Ron Kenoly High Places 
TTITLE11=Instrumental
TTITLE12=Paz às Nações - Ron Kenoly In Sing Out
TTITLE13=Desde os Confins da Terra - Ig. Biblica da Paz
TTITLE14=Todas as Raças - Marco e Soraya Moraes 
TTITLE15=Oh, Happy Day - Edwin R. Hawkins
EXTD=
EXTT0=
EXTT1=
EXTT2=
EXTT3=
EXTT4=
EXTT5=
EXTT6=
EXTT7=
EXTT8=
EXTT9=
EXTT10=
EXTT11=
EXTT12=
EXTT13=
EXTT14=
EXTT15=
PLAYORDER=
